<svg xmlns="http://www.w3.org/2000/svg" version="1.0" width="150" height="62" preserveAspectRatio="xMidYMid meet"><rect id="backgroundrect" width="100%" height="100%" x="0" y="0" fill="none" stroke="none" class="" style=""/>


<g class="currentLayer" style=""><title>Layer 1</title><g transform="translate(0,108) scale(0.10000000149011612,-0.10000000149011612) " fill="#ffffff" stroke="none" id="svg_1" class="" fill-opacity="1">
<path d="M426.7161305363386,972.5644306253209 c-61.74738135924512,-13.907375707476646 -127.46423723444171,-62.1741502216603 -154.36845339811282,-113.30420796973618 c-52.92632687935296,-99.80587272424415 -18.965267131768144,-218.42760669978023 79.83054304302404,-279.37463553548673 c93.5031774868569,-57.26566467784502 220.9674147212986,-45.403491280291405 299.0337468683442,28.63283233892251 c30.432637955627957,29.04187280090711 51.162115983374534,62.5831906836449 61.74738135924512,100.62395364821337 c9.703159927881376,34.76843926869161 7.056843583913729,91.21602302256741 -5.733685411929905,121.89405767141297 c-10.585265375870595,25.360508643045648 -9.703159927881376,29.450913262891724 7.497896307908337,38.85884388853769 c16.7600035117951,9.407930625645967 43.66421967546619,8.589849701676751 60.865275911255914,-0.8180809239692143 c18.08316168377893,-10.22601154961518 20.729478027746577,-19.633942175261147 11.908423547854415,-41.72212712242993 c-9.703159927881376,-24.542427719076432 -12.790528995843633,-81.80809239692144 -6.61579085991912,-111.25900565981317 c7.497896307908337,-31.496115572814755 31.755796127611777,-75.26344500516774 55.57264322332061,-100.21491318622874 c89.97475569490004,-92.85218487050584 246.54847271298587,-96.9425894903519 341.8158610958212,-8.99889016366136 c74.09685763109415,68.30975715142941 91.29791386688385,164.02522525582754 45.42843057144463,252.78700550648725 c-16.318950787800496,31.496115572814755 -66.1579085991912,77.71768777707538 -101.44212651875982,94.48834671844428 c-105.85265375870593,49.084855438152864 -232.43478554515843,21.67914448518418 -301.23901048831726,-65.85551437952175 c-10.585265375870595,-13.49833524549204 -12.790528995843633,-14.725456631445862 -18.08316168377893,-8.99889016366136 c-10.144212651875984,11.453132935569002 -38.3715869875309,22.088184947168788 -58.21895956728826,22.088184947168788 c-11.908423547854415,0 -26.904216163671084,-3.6813641578614655 -39.694745159514724,-9.816971087630574 l-20.288425303751968,-10.22601154961518 l-32.19684885160639,29.859953724876327 c-62.629486807234336,58.08374560181422 -142.90108257425297,79.76289008699841 -225.81899468523932,61.3560692976911 zm115.11476096259271,-41.72212712242993 c51.162115983374534,-15.13449709343047 93.0621247628623,-48.67581497616826 116.87897185857112,-94.07930625645966 c13.672634443832848,-26.17858956701486 14.554739891822065,-29.450913262891724 14.554739891822065,-74.44536408119853 c0,-44.585410356322186 -0.8821054479892166,-48.67581497616826 -14.113687167827457,-74.85440454318312 c-48.51579963940687,-94.8973871804289 -166.27687694596725,-131.7110287590435 -268.1600561887216,-83.85329470684447 c-27.786321611660306,13.49833524549204 -65.71685587519657,49.90293636212208 -80.71264849101327,78.12672823905999 c-63.511592255223555,119.43981489950531 28.227374335654915,256.05932920236415 172.0105623578971,256.46836966434876 c20.288425303751968,0 43.66421967546619,-2.8632832338922505 59.54211773927208,-7.362728315722931 zm531.9095851374973,-0.8180809239692143 c55.131590499325995,-15.952578017399679 108.05791737867894,-65.03743345555255 124.37686816647945,-115.75845074164384 c9.703159927881376,-29.859953724876327 8.38000175589755,-82.21713285890604 -1.7642108959784322,-110.44092473584395 c-38.812639711525506,-104.30531780607487 -168.04108784194565,-150.93593047232005 -276.0990052206246,-100.21491318622874 c-27.786321611660306,13.49833524549204 -65.71685587519657,49.90293636212208 -80.71264849101327,78.12672823905999 c-63.511592255223555,119.03077443752069 28.227374335654915,256.05932920236415 171.56950963390256,256.46836966434876 c22.0526361997304,0 44.1052723994608,-2.8632832338922505 62.629486807234336,-8.180809239692143 z" id="svg_2" fill="#ffffff" fill-opacity="1"/>
<path d="M524.6298352631416,902.6185116259531 c-9.262107203886771,-10.22601154961518 -78.50738487104022,-106.35052011599788 -81.59475393900247,-113.7132484317208 c-1.3231581719838261,-3.6813641578614655 0.44105272399460943,-6.135606929769108 4.851579963940688,-6.135606929769108 c9.703159927881376,0 93.9442302108515,117.39461258958227 88.2105447989216,122.7121385953822 c-3.087369067962256,2.8632832338922505 -7.056843583913729,2.0452023099230368 -11.46737082385981,-2.8632832338922505 z" id="svg_3" fill="#ffffff" fill-opacity="1"/>
<path d="M467.29298114384244,898.528107006107 c-3.5284217919568643,-4.090404619846072 -17.201056235789714,-21.67914448518418 -29.991585231633348,-39.6769248125069 c-15.43684533981128,-21.270104023199572 -21.61158347573579,-33.132277420753184 -18.524214407773542,-35.99556065464544 c7.056843583913729,-6.544647391753715 11.46737082385981,-2.0452023099230368 38.3715869875309,38.040762964568465 c16.318950787800496,23.315306333122614 23.81684709570883,38.449803426553075 21.170530751741186,40.90404619846072 c-2.646316343967648,2.4542427719076434 -6.61579085991912,1.2271213859538217 -11.0263180998652,-3.2723236958768585 z" id="svg_4" fill="#ffffff" fill-opacity="1"/>
<path d="M546.682471462872,857.6240608076463 c-3.5284217919568643,-4.090404619846072 -17.201056235789714,-21.67914448518418 -29.991585231633348,-39.6769248125069 c-16.318950787800496,-22.906265871138004 -21.61158347573579,-33.132277420753184 -18.08316168377893,-36.40460111663005 c5.733685411929905,-5.317526005799894 2.2052636199730404,-8.99889016366136 35.72527064356324,37.22268204059927 c17.201056235789714,24.133387257091822 26.022110715681873,39.6769248125069 23.375794371714225,42.13116758441454 c-2.646316343967648,2.4542427719076434 -6.61579085991912,1.2271213859538217 -11.0263180998652,-3.2723236958768585 z" id="svg_5" fill="#ffffff" fill-opacity="1"/>
<path d="M990.3815118014477,806.4940030595703 c-3.9694745159514726,-12.680254321522824 -5.733685411929905,-13.49833524549204 -26.022110715681873,-15.543537555415075 c-15.877898063805889,-1.6361618479384288 -22.0526361997304,-3.6813641578614655 -22.0526361997304,-8.180809239692143 c0,-4.090404619846072 5.733685411929905,-6.544647391753715 18.524214407773542,-7.362728315722931 l18.524214407773542,-1.2271213859538217 l-5.733685411929905,-15.13449709343047 c-5.292632687935297,-13.49833524549204 -7.497896307908337,-15.543537555415075 -23.81684709570883,-17.58873986533811 c-10.144212651875984,-1.2271213859538217 -19.406319855762753,-3.2723236958768585 -21.170530751741186,-4.49944508183068 c-5.733685411929905,-5.726566467784501 3.9694745159514726,-11.453132935569002 18.524214407773542,-11.453132935569002 c16.318950787800496,0 16.7600035117951,-0.8180809239692143 7.056843583913729,-24.133387257091822 c-1.3231581719838261,-3.2723236958768585 0.44105272399460943,-4.908485543815287 6.174738135924512,-3.6813641578614655 c4.851579963940688,0.8180809239692143 9.703159927881376,6.953687853738323 12.349476271849024,14.725456631445862 c3.5284217919568643,12.271213859538216 4.851579963940688,13.08929478350743 25.581057991687267,13.08929478350743 l21.61158347573579,0 l-3.087369067962256,-14.316416169461254 c-2.2052636199730404,-11.453132935569002 -1.3231581719838261,-14.316416169461254 3.9694745159514726,-14.316416169461254 c3.9694745159514726,0 8.82105447989216,6.135606929769108 11.908423547854415,14.316416169461254 c4.851579963940688,13.08929478350743 6.61579085991912,14.316416169461254 22.0526361997304,14.316416169461254 c18.08316168377893,0 27.345268887665693,6.544647391753715 17.201056235789714,12.680254321522824 c-3.5284217919568643,2.0452023099230368 -10.585265375870595,3.6813641578614655 -15.877898063805889,3.6813641578614655 c-11.0263180998652,0 -12.349476271849024,5.726566467784501 -5.733685411929905,22.088184947168788 c3.087369067962256,8.180809239692143 7.497896307908337,10.22601154961518 22.93474164771962,11.453132935569002 c24.69895254369805,1.6361618479384288 26.904216163671084,13.08929478350743 2.646316343967648,14.725456631445862 c-15.877898063805889,1.2271213859538217 -15.877898063805889,1.6361618479384288 -11.46737082385981,13.49833524549204 c2.646316343967648,6.953687853738323 3.5284217919568643,13.49833524549204 2.2052636199730404,14.725456631445862 c-5.733685411929905,4.908485543815287 -15.43684533981128,-2.8632832338922505 -18.524214407773542,-14.725456631445862 c-2.646316343967648,-12.271213859538216 -3.9694745159514726,-12.680254321522824 -24.69895254369805,-12.680254321522824 l-22.0526361997304,0 l3.087369067962256,14.316416169461254 c3.5284217919568643,19.224901713276537 -8.38000175589755,20.042982637245753 -14.113687167827457,1.2271213859538217 zm46.75158874342845,-35.586520192660835 c0,-1.6361618479384288 -2.2052636199730404,-8.99889016366136 -4.851579963940688,-16.361618479384287 c-4.41052723994608,-11.862173397553612 -6.174738135924512,-12.680254321522824 -26.904216163671084,-12.680254321522824 c-18.524214407773542,0 -21.61158347573579,1.2271213859538217 -19.406319855762753,6.544647391753715 c1.3231581719838261,3.6813641578614655 3.9694745159514726,11.044092473584394 5.292632687935297,16.361618479384287 c2.2052636199730404,8.589849701676751 5.292632687935297,9.816971087630574 24.257899819703436,9.816971087630574 c11.908423547854415,0 21.61158347573579,-1.6361618479384288 21.61158347573579,-3.6813641578614655 z" id="svg_6" fill="#ffffff" fill-opacity="1"/>
<path d="M132.53396363193508,930.4332630409064 c-10.144212651875984,-7.771768777707537 -10.585265375870595,-10.22601154961518 -12.790528995843633,-75.26344500516774 c-2.2052636199730404,-60.53798837372188 -3.087369067962256,-69.12783807539863 -11.46737082385981,-79.3538496250138 c-6.174738135924512,-7.362728315722931 -14.554739891822065,-12.271213859538216 -24.257899819703436,-13.49833524549204 c-20.288425303751968,-2.8632832338922505 -21.170530751741186,-16.770658941368893 -1.3231581719838261,-20.45202309923036 c7.497896307908337,-1.6361618479384288 15.877898063805889,-4.090404619846072 18.965267131768144,-6.135606929769108 c12.349476271849024,-6.953687853738323 18.08316168377893,-30.67803464884555 18.08316168377893,-76.49056639112156 c0,-49.90293636212208 4.851579963940688,-76.08152592913693 14.113687167827457,-81.39905193493685 c9.262107203886771,-5.726566467784501 62.629486807234336,-4.090404619846072 71.8915940111211,1.6361618479384288 c11.0263180998652,7.771768777707537 2.646316343967648,12.271213859538216 -26.46316343967648,15.13449709343047 l-22.0526361997304,2.0452023099230368 l-2.646316343967648,53.17526005799894 c-3.5284217919568643,60.53798837372188 -11.46737082385981,84.6713756308137 -31.314743403617168,95.71546810439807 l-12.349476271849024,7.362728315722931 l10.144212651875984,4.090404619846072 c21.61158347573579,9.407930625645967 33.5200070235902,52.766219596014324 33.96105974758481,122.7121385953822 c0,31.905156034799358 0.44105272399460943,33.9503583447224 10.144212651875984,35.586520192660835 c36.60737609155246,6.544647391753715 44.98737784745002,8.99889016366136 44.98737784745002,14.725456631445862 c0,4.908485543815287 -7.056843583913729,6.544647391753715 -33.5200070235902,7.362728315722931 c-27.786321611660306,0.8180809239692143 -35.28421791956864,0 -44.1052723994608,-6.953687853738323 z" id="svg_7" fill="#ffffff" fill-opacity="1"/>
<path d="M1290.7384168417757,932.4784653508294 c-7.938949031902944,-5.317526005799894 -7.938949031902944,-5.726566467784501 1.3231581719838261,-10.22601154961518 c4.851579963940688,-2.4542427719076434 17.201056235789714,-4.49944508183068 27.345268887665693,-4.49944508183068 c23.375794371714225,0 26.46316343967648,-7.362728315722931 26.46316343967648,-64.62839299356794 c0,-49.084855438152864 8.82105447989216,-74.85440454318312 27.786321611660306,-83.03521378287526 l10.144212651875984,-4.49944508183068 l-14.113687167827457,-13.08929478350743 c-18.965267131768144,-17.58873986533811 -23.81684709570883,-36.40460111663005 -23.81684709570883,-94.48834671844428 c0,-26.99667049098408 -1.7642108959784322,-51.539098210060516 -3.9694745159514726,-54.40238144395276 c-1.7642108959784322,-3.2723236958768585 -15.43684533981128,-7.771768777707537 -29.550532507638735,-10.22601154961518 c-18.08316168377893,-3.2723236958768585 -26.022110715681873,-6.953687853738323 -26.022110715681873,-11.044092473584394 c0,-4.908485543815287 7.056843583913729,-6.544647391753715 33.5200070235902,-7.362728315722931 c27.786321611660306,-0.8180809239692143 35.28421791956864,0 44.1052723994608,6.953687853738323 c10.144212651875984,7.362728315722931 10.585265375870595,10.22601154961518 13.23158171983824,74.85440454318312 c2.646316343967648,82.62617332089064 7.497896307908337,94.8973871804289 37.048428815547084,98.16971087630573 c8.38000175589755,0.8180809239692143 13.672634443832848,3.6813641578614655 14.554739891822065,8.589849701676751 c1.7642108959784322,6.953687853738323 -0.8821054479892166,8.589849701676751 -22.49368892372501,12.680254321522824 c-22.93474164771962,4.908485543815287 -29.550532507638735,22.4972254091534 -29.550532507638735,78.12672823905999 c0,50.311976824106694 -4.41052723994608,74.44536408119853 -14.113687167827457,80.58097101096762 c-9.703159927881376,5.317526005799894 -62.629486807234336,3.6813641578614655 -71.8915940111211,-2.4542427719076434 z" id="svg_8" fill="#ffffff" fill-opacity="1"/>
</g></g></svg>