<?xml version="1.0" standalone="no"?>
<!DOCTYPE svg PUBLIC "-//W3C//DTD SVG 20010904//EN"
 "http://www.w3.org/TR/2001/REC-SVG-20010904/DTD/svg10.dtd">
<svg version="1.0" xmlns="http://www.w3.org/2000/svg"
 width="311.000000pt" height="108.000000pt" viewBox="0 0 311.000000 108.000000"
 preserveAspectRatio="xMidYMid meet">

<g transform="translate(0.000000,108.000000) scale(0.100000,-0.100000)"
fill="#000000" stroke="none">
<path d="M826 1054 c-140 -34 -289 -152 -350 -277 -120 -244 -43 -534 181
-683 212 -140 501 -111 678 70 69 71 116 153 140 246 22 85 16 223 -13 298
-24 62 -22 72 17 95 38 23 99 21 138 -2 41 -25 47 -48 27 -102 -22 -60 -29
-200 -15 -272 17 -77 72 -184 126 -245 204 -227 559 -237 775 -22 168 167 207
401 103 618 -37 77 -150 190 -230 231 -240 120 -527 53 -683 -161 -24 -33 -29
-36 -41 -22 -23 28 -87 54 -132 54 -27 0 -61 -9 -90 -24 l-46 -25 -73 73
c-142 142 -324 195 -512 150z m261 -102 c116 -37 211 -119 265 -230 31 -64 33
-72 33 -182 0 -109 -2 -119 -32 -183 -110 -232 -377 -322 -608 -205 -63 33
-149 122 -183 191 -144 292 64 626 390 627 46 0 99 -7 135 -18z m1206 -2 c125
-39 245 -159 282 -283 22 -73 19 -201 -4 -270 -88 -255 -381 -369 -626 -245
-63 33 -149 122 -183 191 -144 291 64 626 389 627 50 0 100 -7 142 -20z"/>
<path d="M1048 883 c-21 -25 -178 -260 -185 -278 -3 -9 1 -15 11 -15 22 0 213
287 200 300 -7 7 -16 5 -26 -7z"/>
<path d="M918 873 c-8 -10 -39 -53 -68 -97 -35 -52 -49 -81 -42 -88 16 -16 26
-5 87 93 37 57 54 94 48 100 -6 6 -15 3 -25 -8z"/>
<path d="M1098 773 c-8 -10 -39 -53 -68 -97 -37 -56 -49 -81 -41 -89 13 -13 5
-22 81 91 39 59 59 97 53 103 -6 6 -15 3 -25 -8z"/>
<path d="M2104 648 c-9 -31 -13 -33 -59 -38 -36 -4 -50 -9 -50 -20 0 -10 13
-16 42 -18 l42 -3 -13 -37 c-12 -33 -17 -38 -54 -43 -23 -3 -44 -8 -48 -11
-13 -14 9 -28 42 -28 37 0 38 -2 16 -59 -3 -8 1 -12 14 -9 11 2 22 17 28 36 8
30 11 32 58 32 l49 0 -7 -35 c-5 -28 -3 -35 9 -35 9 0 20 15 27 35 11 32 15
35 50 35 41 0 62 16 39 31 -8 5 -24 9 -36 9 -25 0 -28 14 -13 54 7 20 17 25
52 28 56 4 61 32 6 36 -36 3 -36 4 -26 33 6 17 8 33 5 36 -13 12 -35 -7 -42
-36 -6 -30 -9 -31 -56 -31 l-50 0 7 35 c8 47 -19 49 -32 3z m106 -87 c0 -4 -5
-22 -11 -40 -10 -29 -14 -31 -61 -31 -42 0 -49 3 -44 16 3 9 9 27 12 40 5 21
12 24 55 24 27 0 49 -4 49 -9z"/>
<path d="M159 951 c-23 -19 -24 -25 -29 -184 -5 -148 -7 -169 -26 -194 -14
-18 -33 -30 -55 -33 -46 -7 -48 -41 -3 -50 17 -4 36 -10 43 -15 28 -17 41 -75
41 -187 0 -122 11 -186 32 -199 21 -14 142 -10 163 4 25 19 6 30 -60 37 l-50
5 -6 130 c-8 148 -26 207 -71 234 l-28 18 23 10 c49 23 76 129 77 300 0 78 1
83 23 87 83 16 102 22 102 36 0 12 -16 16 -76 18 -63 2 -80 0 -100 -17z"/>
<path d="M2785 956 c-18 -13 -18 -14 3 -25 11 -6 39 -11 62 -11 53 0 60 -18
60 -158 0 -120 20 -183 63 -203 l23 -11 -32 -32 c-43 -43 -54 -89 -54 -231 0
-66 -4 -126 -9 -133 -4 -8 -35 -19 -67 -25 -41 -8 -59 -17 -59 -27 0 -12 16
-16 76 -18 63 -2 80 0 100 17 23 18 24 25 30 183 6 202 17 232 84 240 19 2 31
9 33 21 4 17 -2 21 -51 31 -52 12 -67 55 -67 191 0 123 -10 182 -32 197 -22
13 -142 9 -163 -6z"/>
</g>
</svg>
